<?xml version="1.0" encoding="UTF-8"?>
<!-- Generator: Adobe Illustrator 25.2.1, SVG Export Plug-In . SVG Version: 6.00 Build 0)  -->
<svg version="1.1" id="Capa_1" xmlns="http://www.w3.org/2000/svg" xmlns:xlink="http://www.w3.org/1999/xlink" x="0px" y="0px" viewBox="0 0 600 600" style="enable-background:new 0 0 600 600;" xml:space="preserve">
<style type="text/css">
	.st0{fill:#002B2A;}
	.st1{fill:#00AAAA;}
	.st2{fill:#FFFFFF;}
	.st3{fill:#11726B;}
</style>
<g>
	<circle class="st0" cx="300" cy="300" r="285"/>
	<g>
		<circle class="st1" cx="300" cy="300" r="253.9"/>
		<path class="st2" d="M463.9,388.1c-3.5-0.6-6.9-0.3-10,0.7c-2.8,0.9-5.7,0.3-7.8-1.8l-36-36c-0.7-0.7-1.3-1.4-1.8-2.2l-51.4-77.1    c-0.9-1.3-0.7-3.1,0.4-4.2l6.2-6.1l42.8-42.8c2.1-2.1,5.1-2.6,7.9-1.7c3.5,1.2,7.3,1.4,11.3,0.6c8.4-1.8,15.1-8.8,16.4-17.3    c2.3-14.6-10.1-27-24.7-24.6c-8.8,1.5-16,8.6-17.5,17.4c-0.6,3.4-0.3,6.8,0.6,9.8c0.8,2.7,0.2,5.7-1.8,7.7l-41.5,41.5l-5.6,5.6    c-1.3,1.3-3.4,1.1-4.4-0.4L308,198.4c-1.6-2.3-2.4-5.1-2.4-7.9v-46.7c0-2.9,1.7-5.6,4.3-7c7.9-4.1,12.9-13,11.1-22.8    c-1.5-8.6-8.4-15.5-16.9-17.1c-13.6-2.5-25.4,7.9-25.4,21c0,8.2,4.7,15.3,11.5,18.9c2.6,1.4,4.3,4,4.3,7v46.7    c0,2.8-0.8,5.6-2.4,7.9l-39.2,58.8c-1,1.5-3.1,1.7-4.4,0.4l-47-47c-2-2-2.6-5-1.8-7.7c0.9-3,1.2-6.4,0.6-9.8    c-1.5-8.8-8.6-16-17.5-17.4c-14.6-2.4-27,10-24.7,24.6c1.4,8.5,8,15.5,16.5,17.3c4,0.9,7.9,0.6,11.3-0.6c2.8-0.9,5.8-0.3,7.9,1.7    l97.1,97.1c2.2,2.2,3.5,5.2,3.5,8.3V348h-84.2c-1.9,0-3.1-2.1-2-3.7l35.5-53.2c1.2-1.8,1.5-4.3,0.3-6.1c-2.3-3.7-7.3-3.6-9.5-0.3    l-42.8,64.2c-0.5,0.8-1.1,1.5-1.8,2.2l-36,36c-2,2-5,2.6-7.8,1.8c-3.1-1-6.5-1.3-10-0.7c-8.9,1.5-16.1,8.6-17.5,17.6    c-2.3,14.5,10.1,26.9,24.6,24.6c8.9-1.4,16.1-8.6,17.6-17.5c0.6-3.5,0.3-6.9-0.7-10c-0.9-2.7-0.3-5.7,1.8-7.8l31.6-31.6    c2.7-2.7,6.3-4.2,10.1-4.2h90.9v47.3c0,2.8-1.6,5.4-4.1,6.7c-2.8,1.4-5.2,3.4-7.1,5.9c-2.9,3.7-4.6,8.3-4.6,13.3    c0.1,11.3,9.4,20.9,20.8,21.2c12.1,0.3,22-9.4,22-21.4c0-5-1.7-9.6-4.6-13.2c-1.9-2.4-4.3-4.4-7.1-5.8c-2.5-1.3-4.1-3.8-4.1-6.7    v-82.3c0-3.1,1.2-6.1,3.5-8.3l7.7-7.7l19-19c1.7-1.7,2.3-4.3,1.4-6.4c-1.7-3.7-6.4-4.4-9.1-1.7L302,307c-1.1,1.1-2.9,1.1-4,0    L260.9,270c-1.1-1.1-1.3-2.9-0.4-4.2l37.5-56.3c0.9-1.4,3-1.4,4,0l89.8,134.7c1.1,1.6-0.1,3.7-2,3.7h-67.2c-2.6,0-5.1,1.7-5.7,4.2    c-0.9,3.7,1.9,7,5.4,7h74.1c3.8,0,7.4,1.5,10.1,4.2l31.6,31.6c2,2,2.6,5,1.8,7.8c-1,3.1-1.3,6.5-0.7,10    c1.5,8.9,8.6,16.1,17.6,17.5c14.5,2.3,26.9-10.1,24.6-24.6C480,396.7,472.8,389.5,463.9,388.1L463.9,388.1z M418.1,186.8    c7.7-2,14.6,4.8,12.6,12.6c-0.9,3.4-3.7,6.1-7,7c-7.7,2-14.6-4.8-12.6-12.6C412,190.4,414.8,187.7,418.1,186.8L418.1,186.8z     M182,206.5c-7.7,2-14.6-4.8-12.6-12.6c0.9-3.4,3.6-6.1,7-7c7.7-2,14.6,4.8,12.6,12.6C188.1,202.8,185.4,205.6,182,206.5    L182,206.5z M142.4,418.9c-7.7,2-14.6-4.8-12.6-12.6c0.9-3.4,3.6-6.1,7-7c7.7-2,14.6,4.8,12.6,12.6    C148.6,415.3,145.8,418,142.4,418.9L142.4,418.9z M309.1,427.6c0.7,1.4,1.1,3,1.1,4.6c0,6.1-5.4,10.9-11.6,10.1    c-3.2-0.5-6.1-2.6-7.6-5.5c-1.6-3.2-1.3-6.5,0-9.2c1.7-3.3,5.1-5.6,9.1-5.6C304,422,307.4,424.2,309.1,427.6L309.1,427.6z     M290.2,120.6c-2.1-7.7,4.8-14.6,12.6-12.6c3.4,0.9,6.1,3.6,7,7c2.1,7.7-4.8,14.6-12.6,12.6C293.8,126.8,291.1,124,290.2,120.6    L290.2,120.6z M463.1,418.9c-7.7,2-14.6-4.8-12.6-12.6c0.9-3.4,3.6-6.1,7-7c7.7-2.1,14.6,4.8,12.6,12.6    C469.2,415.3,466.5,418,463.1,418.9"/>
		<g>
			<g>
				<g>
					<g>
						<g>
							<path class="st3" d="M300,54.9c-62.9,0-120.4,23.8-163.8,63c-0.3,0.3-0.6,0.5-0.9,0.8l0,0C85.9,163.5,54.9,228.2,54.9,300         c0,74.7,33.6,141.6,86.4,186.6c0.1,0.1,0.2,0.2,0.3,0.3c1.1,0.9,2.2,1.9,3.4,2.8c0.6,0.5,1.2,1,1.9,1.5c1,0.8,2,1.6,3.1,2.4         c0,0,0.1,0.1,0.1,0.1c20.7,16.1,44.1,28.9,69.3,37.7c25.2,8.8,52.3,13.6,80.6,13.6c135.1,0,245.1-109.9,245.1-245.1         S435.1,54.9,300,54.9z M522.8,240.6h-16.9c-1.9,0-3-2.1-2-3.7l11.9-17.9C518.6,226,520.9,233.2,522.8,240.6z M85.4,215.7         l14.1,21.2c1.1,1.6-0.1,3.7-2,3.7H77.2C79.4,232.1,82.2,223.8,85.4,215.7z M210.5,512.5l19.9-29.9c0.9-1.4,3-1.4,4,0         l30.2,45.2C245.7,524.9,227.5,519.7,210.5,512.5z M229.6,400.8c-3.4-0.9-6.1-3.6-7-7c-2.1-7.8,4.8-14.6,12.6-12.6         c3.4,0.9,6.1,3.6,7,7C244.2,395.9,237.4,402.8,229.6,400.8z M502.1,349.1c-3.4-0.9-6.1-3.6-7-7c-2.1-7.8,4.8-14.6,12.6-12.6         c3.4,0.9,6.1,3.6,7,7C516.7,344.3,509.9,351.2,502.1,349.1z M510.5,365.2c0-2.9,1.7-5.6,4.3-7c7.9-4.1,12.9-13,11.1-22.9         c-1.5-8.5-8.4-15.5-16.9-17.1c-13.6-2.5-25.4,7.9-25.4,21c0,8.2,4.7,15.3,11.5,18.9c2.6,1.3,4.3,4,4.3,7v46.6         c0,2.8-0.8,5.6-2.4,7.9L486.1,436c-10.6,14.5-22.8,27.7-36.4,39.3L406.4,432c-2-2-2.6-5-1.8-7.7c0.9-3,1.2-6.4,0.6-9.8         c-1.5-8.9-8.6-16-17.5-17.4c-14.6-2.4-27,10-24.7,24.6c1.4,8.5,8,15.5,16.5,17.3c4,0.9,7.9,0.6,11.3-0.6         c2.8-0.9,5.8-0.4,7.9,1.7l42.2,42.2c-39,30.2-87.9,48.2-141,48.2h-0.2l38.9-38.9c2.1-2.1,5.1-2.6,7.9-1.7         c3.5,1.1,7.3,1.4,11.3,0.6c8.5-1.8,15.1-8.8,16.5-17.3c2.3-14.6-10.1-27-24.7-24.6c-8.8,1.5-16,8.6-17.4,17.4         c-0.6,3.4-0.3,6.8,0.6,9.8c0.8,2.7,0.2,5.7-1.8,7.7l-46.6,46.6c-1.8-0.1-3.6-0.3-5.3-0.4l-38.8-58.2         c-1.6-2.3-2.4-5.1-2.4-7.9v-46.7c0-2.9,1.7-5.6,4.3-7c7.9-4.1,12.9-13,11.1-22.9c-1.5-8.6-8.4-15.5-16.9-17.1         c-13.6-2.5-25.4,7.9-25.4,21c0,8.2,4.7,15.3,11.5,18.9c2.6,1.3,4.3,4,4.3,7v46.6c0,2.8-0.8,5.6-2.4,7.9l-24.3,36.4         c-14.1-6.8-27.4-15-39.7-24.4l0.8-0.8c2.1-2.1,5.1-2.7,7.9-1.7c3.5,1.1,7.3,1.4,11.3,0.6c8.4-1.8,15.1-8.8,16.4-17.3         c2.4-14.6-10.1-27-24.7-24.6c-8.9,1.5-16,8.6-17.5,17.4c-0.6,3.4-0.3,6.8,0.6,9.8c0.8,2.7,0.2,5.7-1.8,7.7l-1.9,1.9         c-29.4-24.7-52.5-56.6-66.6-93l17.8-17.8c2.1-2.1,5.1-2.7,7.9-1.7c3.5,1.2,7.3,1.5,11.3,0.6c8.4-1.8,15.1-8.8,16.5-17.3         c2.3-14.6-10.1-27-24.7-24.6c-8.9,1.5-16,8.6-17.4,17.4c-0.6,3.4-0.3,6.8,0.6,9.8c0.8,2.7,0.2,5.7-1.8,7.7l-14.3,14.4         C73.4,349.1,69.4,325,69.4,300c0-16.5,1.8-32.6,5.1-48.2h29.7c3.8,0,7.4,1.5,10.1,4.2l31.6,31.6c2,2.1,2.6,5.1,1.7,7.8         c-1,3.1-1.3,6.4-0.7,10c1.5,8.9,8.7,16.1,17.6,17.6c14.5,2.3,26.9-10.1,24.6-24.6c-1.4-8.9-8.6-16.1-17.5-17.6         c-3.5-0.6-6.9-0.3-10,0.7c-2.8,0.9-5.8,0.3-7.8-1.8l-36-36c-0.7-0.7-1.3-1.4-1.8-2.2l-25.4-38.1c13.2-28.4,32-53.7,54.9-74.5         l0.8,0.8c2,2.1,2.6,5.1,1.8,7.8c-1,3.1-1.3,6.5-0.7,10c1.5,8.9,8.6,16.1,17.6,17.5c14.5,2.3,26.9-10.1,24.6-24.6         c-1.4-8.9-8.6-16.1-17.5-17.6c-3.5-0.6-6.9-0.3-10,0.7c-2.7,0.9-5.7,0.3-7.8-1.8l-0.2-0.2c29-23.8,63.8-40.6,102-48         l-27.5,27.5c-2.1,2-5,2.6-7.8,1.7c-3.1-1-6.4-1.3-10-0.7c-8.9,1.5-16.1,8.7-17.5,17.6c-2.3,14.5,10.1,26.9,24.6,24.6         c8.9-1.4,16.1-8.6,17.6-17.5c0.6-3.5,0.3-6.9-0.7-10c-0.9-2.8-0.3-5.8,1.7-7.8L268,77.5c0.6-0.6,1.2-1.1,1.9-1.6         c0.8-0.6,1.7-1.1,2.7-1.5c0.1,0,0.1-0.1,0.2-0.1c5.7-2.8,13.6-4.9,24.6-4.9c29.7,0,44.8,3.9,44.8,3.9         c9.1,1.7,18.1,3.9,26.8,6.7v40.6c0,2.8-1.6,5.4-4.1,6.6c-2.8,1.4-5.2,3.4-7.1,5.9c-2.9,3.6-4.6,8.3-4.6,13.3         c0.1,11.4,9.4,20.9,20.8,21.2c12.1,0.3,22-9.4,22-21.4c0-5-1.7-9.6-4.6-13.2c-1.9-2.4-4.3-4.4-7.1-5.9         c-2.5-1.3-4.1-3.8-4.1-6.6V83.8c46.4,17.3,85.8,49.1,112.5,89.9l-11.6,11.6c-2.1,2-5.1,2.6-7.8,1.8c-3.1-1-6.4-1.3-10-0.7         c-8.9,1.5-16.1,8.7-17.6,17.6c-2.3,14.5,10.1,26.9,24.6,24.6c8.9-1.4,16.1-8.6,17.6-17.5c0.6-3.5,0.3-6.9-0.7-10         c-0.9-2.7-0.3-5.7,1.8-7.8l9.8-9.8c4.4,7.4,8.3,15.1,11.9,23l-23.3,35c-0.5,0.8-1.1,1.5-1.8,2.2l-36,36c-2,2-5,2.6-7.8,1.8         c-3.1-1-6.5-1.3-10-0.7c-8.9,1.5-16.1,8.7-17.5,17.6c-2.3,14.5,10.1,26.9,24.6,24.6c8.9-1.4,16.1-8.6,17.6-17.5         c0.6-3.5,0.3-6.9-0.7-10c-0.9-2.7-0.3-5.7,1.8-7.8l31.6-31.6c2.7-2.7,6.3-4.2,10.1-4.2h26.3c3.3,15.5,5.1,31.7,5.1,48.2         c0,33.5-7.2,65.4-20.1,94.2V365.2z M393.9,420.9c-0.9,3.4-3.6,6.1-7,7c-7.7,2.1-14.6-4.8-12.6-12.6c0.9-3.4,3.6-6.1,7-7         C389.1,406.3,396,413.2,393.9,420.9z M343.5,466.9c0.9-3.4,3.6-6.1,7-7c7.7-2.1,14.6,4.8,12.5,12.6c-0.9,3.4-3.6,6.1-7,7         C348.3,481.5,341.4,474.6,343.5,466.9z M166,457.8c0.9-3.4,3.6-6.1,7-7c7.7-2,14.6,4.9,12.6,12.6c-0.9,3.4-3.7,6.1-7,7         C170.9,472.4,164,465.5,166,457.8z M107.6,340.8c0.9-3.4,3.7-6.1,7-7c7.7-2.1,14.6,4.8,12.6,12.6c-0.9,3.4-3.6,6.1-7,7         C112.4,355.4,105.6,348.5,107.6,340.8z M158.2,299c0.9-3.4,3.6-6.1,7-7c7.7-2.1,14.6,4.8,12.6,12.6c-0.9,3.4-3.7,6.1-7,7         C163.1,313.6,156.2,306.7,158.2,299z M158.7,141.2c0.9-3.4,3.6-6.1,7-7c7.7-2.1,14.6,4.8,12.6,12.6c-0.9,3.4-3.6,6.1-7,7         C163.5,155.8,156.6,148.9,158.7,141.2z M224.1,126c-0.9,3.4-3.6,6.1-7,7c-7.7,2-14.6-4.9-12.6-12.6c0.9-3.4,3.6-6.1,7-7         C219.3,111.4,226.2,118.3,224.1,126z M374.7,136.1c4,0,7.4,2.3,9.1,5.6c0.7,1.4,1.1,3,1.1,4.6c0,6.1-5.4,10.9-11.6,10.1         c-3.2-0.5-6.1-2.6-7.6-5.5c-1.6-3.2-1.3-6.5,0-9.2C367.3,138.4,370.7,136.1,374.7,136.1z M476.8,210.2c-0.9,3.4-3.6,6.1-7,7         c-7.7,2.1-14.6-4.8-12.6-12.6c0.9-3.4,3.6-6.1,7-7C471.9,195.6,478.8,202.5,476.8,210.2z M445.2,304.5c-0.9,3.4-3.6,6.1-7,7         c-7.7,2.1-14.6-4.8-12.6-12.6c0.9-3.4,3.6-6.1,7-7C440.4,289.9,447.3,296.8,445.2,304.5z"/>
						</g>
					</g>
				</g>
				<g>
					<path class="st3" d="M151.6,258.6L151.6,258.6c-7.7,2-14.6-4.8-12.6-12.6c0.9-3.4,3.6-6.1,7-7c7.7-2,14.6,4.8,12.6,12.6       C157.7,255,155,257.7,151.6,258.6"/>
				</g>
				<g>
					<path class="st3" d="M206.9,172.9L206.9,172.9c-7.7,2-14.6-4.8-12.6-12.6c0.9-3.4,3.6-6.1,7-7c7.7-2,14.6,4.8,12.6,12.6       C213.1,169.3,210.3,172,206.9,172.9"/>
				</g>
				<g>
					<path class="st3" d="M131.3,238.3L131.3,238.3c-7.7,2-14.6-4.8-12.6-12.6c0.9-3.4,3.6-6.1,7-7c7.7-2,14.6,4.8,12.6,12.6       C137.4,234.6,134.7,237.4,131.3,238.3"/>
				</g>
				<g>
					<path class="st3" d="M348.8,439.3L348.8,439.3c-7.7,2-14.6-4.8-12.6-12.6c0.9-3.4,3.6-6.1,7-7c7.7-2,14.6,4.8,12.6,12.6       C354.9,435.6,352.2,438.4,348.8,439.3"/>
				</g>
				<g>
					<path class="st3" d="M500.9,284.8L500.9,284.8c-7.7,2-14.6-4.8-12.6-12.6c0.9-3.4,3.6-6.1,7-7c7.7-2,14.6,4.8,12.6,12.6       C507.1,281.2,504.3,283.9,500.9,284.8"/>
				</g>
				<g>
					<path class="st3" d="M479.9,303.5L479.9,303.5c-7.7,2-14.6-4.8-12.6-12.6c0.9-3.4,3.6-6.1,7-7c7.7-2,14.6,4.8,12.6,12.6       C486.1,299.8,483.3,302.6,479.9,303.5"/>
				</g>
				<g>
					<path class="st3" d="M354.1,101.6L354.1,101.6c-7.7,2-14.6-4.8-12.6-12.6c0.9-3.4,3.6-6.1,7-7c7.7-2,14.6,4.8,12.6,12.6       C360.2,97.9,357.5,100.6,354.1,101.6"/>
				</g>
				<g>
					<path class="st3" d="M356.1,237.9L356.1,237.9c-7.7,2-14.6-4.8-12.6-12.6c0.9-3.4,3.6-6.1,7-7c7.7-2,14.6,4.8,12.6,12.6       C362.2,234.3,359.5,237,356.1,237.9"/>
				</g>
				<g>
					<path class="st3" d="M377.4,210.3L377.4,210.3c-7.7,2-14.6-4.8-12.6-12.6c0.9-3.4,3.6-6.1,7-7c7.7-2,14.6,4.8,12.6,12.6       C383.6,206.6,380.8,209.4,377.4,210.3"/>
				</g>
				<g>
					<path class="st3" d="M182,428L182,428c-7.7,2-14.6-4.8-12.6-12.6c0.9-3.4,3.6-6.1,7-7c7.7-2,14.6,4.8,12.6,12.6       C188.1,424.3,185.4,427.1,182,428"/>
				</g>
				<g>
					<path class="st3" d="M102.7,312.8L102.7,312.8c-7.7,2-14.6-4.8-12.6-12.6c0.9-3.4,3.6-6.1,7-7c7.7-2,14.6,4.8,12.6,12.6       C108.8,309.2,106.1,311.9,102.7,312.8"/>
				</g>
				<g>
					<path class="st3" d="M102.7,284.4L102.7,284.4c-7.7,2-14.6-4.8-12.6-12.6c0.9-3.4,3.6-6.1,7-7c7.7-2,14.6,4.8,12.6,12.6       C108.8,280.7,106.1,283.5,102.7,284.4"/>
				</g>
				<g>
					<path class="st3" d="M393.6,469.3L393.6,469.3c-7.7,2-14.6-4.8-12.6-12.6c0.9-3.4,3.6-6.1,7-7c7.7-2,14.6,4.8,12.6,12.6       C399.7,465.7,397,468.4,393.6,469.3"/>
				</g>
				<g>
					<path class="st3" d="M423.7,428L423.7,428c-7.7,2-14.6-4.8-12.6-12.6c0.9-3.4,3.6-6.1,7-7c7.7-2,14.6,4.8,12.6,12.6       C429.8,424.3,427.1,427.1,423.7,428"/>
				</g>
				<g>
					<path class="st3" d="M413.5,485.8L413.5,485.8c-7.7,2-14.6-4.8-12.6-12.6c0.9-3.4,3.6-6.1,7-7c7.7-2,14.6,4.8,12.6,12.6       C419.6,482.2,416.9,484.9,413.5,485.8"/>
				</g>
				<g>
					<path class="st3" d="M286.9,514.5L286.9,514.5c-7.7,2-14.6-4.8-12.6-12.6c0.9-3.4,3.6-6.1,7-7c7.7-2,14.6,4.8,12.6,12.6       C293.1,510.9,290.3,513.6,286.9,514.5"/>
				</g>
				<g>
					<path class="st3" d="M330.2,101.6L330.2,101.6c-7.7,2-14.6-4.8-12.6-12.6c0.9-3.4,3.6-6.1,7-7c7.7-2,14.6,4.8,12.6,12.6       C336.3,97.9,333.6,100.6,330.2,101.6"/>
				</g>
				<rect x="61.1" y="269" class="st3" width="32.2" height="11.2"/>
				<rect x="499" y="269.4" class="st3" width="32.2" height="11.2"/>
				<rect x="405.1" y="478.5" class="st3" width="11.2" height="32.2"/>
				<path class="st3" d="M347.7,223.5v-30.2c0-0.5,0.4-1,1-1h9.2c0.5,0,1,0.4,1,1v30.2c0,0.5-0.4,1-1,1h-9.2      C348.1,224.5,347.7,224.1,347.7,223.5z"/>
				<path class="st3" d="M174.1,254.4h-30.2c-0.5,0-1-0.4-1-1v-9.2c0-0.5,0.4-1,1-1h30.2c0.5,0,1,0.4,1,1v9.2      C175.1,254,174.6,254.4,174.1,254.4z"/>
				<path class="st3" d="M266.4,168.7h-61.2c-0.5,0-1-0.4-1-1v-9.2c0-0.5,0.4-1,1-1h61.2c0.5,0,1,0.4,1,1v9.2      C267.3,168.3,266.9,168.7,266.4,168.7z"/>
				<path class="st3" d="M471.6,327v-30.2c0-0.5,0.4-1,1-1h9.2c0.5,0,1,0.4,1,1V327c0,0.5-0.4,1-1,1h-9.2      C472,328,471.6,327.6,471.6,327z"/>
				<path class="st3" d="M277.7,500.5l0-30.2c0-0.5,0.4-1,1-1h9.2c0.5,0,1,0.4,1,1v30.2c0,0.5-0.4,1-1,1h-9.2      C278.2,501.5,277.7,501,277.7,500.5z"/>
				<rect x="122.9" y="133.4" class="st3" width="11.2" height="92.9"/>
				<rect x="321.8" y="61.2" class="st3" width="11.2" height="33.7"/>
			</g>
		</g>
	</g>
</g>
</svg>