<svg width="342" height="93" viewBox="0 0 342 93" fill="none" xmlns="http://www.w3.org/2000/svg" style="">
<path d="M25.772 75.7797L21.4392 61.8265C21.4208 61.7531 21.3657 61.7164 21.2923 61.7164H13.7465C13.6731 61.7164 13.618 61.7531 13.5997 61.8265L9.26682 75.7797C9.24846 75.8348 9.26682 75.8715 9.28518 75.9266C9.3219 75.9633 9.35862 75.9817 9.4137 75.9817H14.7012C14.7747 75.9817 14.8114 75.945 14.8481 75.8715L15.0684 75.1004C15.0868 75.027 15.1419 74.9719 15.2153 74.9719H19.8786C19.952 74.9719 20.0071 75.0086 20.0255 75.1004L20.2274 75.8715C20.2458 75.945 20.3009 75.9817 20.3743 75.9817H25.6435C25.6986 75.9817 25.7353 75.9633 25.772 75.9083C25.772 75.8715 25.7904 75.8348 25.772 75.7797ZM18.6302 70.8594C18.5934 70.8961 18.5567 70.9145 18.5016 70.9145H16.5188C16.4637 70.9145 16.427 70.8961 16.3903 70.8594C16.3536 70.8227 16.3536 70.786 16.3536 70.7309L17.345 67.3895L17.3634 67.3344C17.3817 67.2609 17.4368 67.2242 17.5102 67.2242C17.5837 67.2242 17.6387 67.2609 17.6571 67.3344L17.6755 67.3895L18.6669 70.7309C18.6669 70.786 18.6669 70.8227 18.6302 70.8594Z" fill="#FA6803" class="GNxipXmE_0"></path>
<path d="M67.4848 75.7614L65.1164 71.7039C65.0797 71.6305 65.098 71.5754 65.1531 71.5203C65.7223 71.0063 66.1629 70.382 66.475 69.666C66.7871 68.95 66.9523 68.1973 66.9523 67.3711C66.9523 66.6 66.8055 65.8656 66.5117 65.1679C66.218 64.4703 65.8141 63.8644 65.3 63.3504C64.7859 62.8363 64.1984 62.4507 63.4824 62.1386C62.7847 61.8449 62.0504 61.698 61.2793 61.698H53.146C53.0542 61.698 52.9991 61.7531 52.9991 61.8449V75.7981C52.9991 75.9082 53.0542 75.9633 53.146 75.9633H58.4519C58.4886 75.9633 58.5253 75.945 58.5621 75.9266C58.5988 75.9082 58.5988 75.8715 58.5988 75.8164V73.191C58.5988 73.0992 58.6355 73.0442 58.7457 73.0442H59.7187C59.7738 73.0442 59.8105 73.0625 59.8472 73.1176L61.4629 75.8715C61.4996 75.9266 61.5363 75.945 61.6097 75.945H67.3746C67.4297 75.945 67.4848 75.9266 67.5031 75.8715C67.5215 75.8715 67.5215 75.8164 67.4848 75.7614ZM61.4078 67.573C61.3711 67.9035 61.2242 68.1789 60.9671 68.3992C60.7101 68.6195 60.398 68.7297 60.0492 68.7297H58.7457C58.6539 68.7297 58.5988 68.6746 58.5988 68.5644V66.2879C58.5988 66.2512 58.6171 66.2144 58.6355 66.1777C58.6722 66.141 58.7089 66.141 58.7457 66.141H60.1226C60.5082 66.141 60.8203 66.2879 61.0773 66.5633C61.3343 66.857 61.4445 67.1875 61.4078 67.573Z" fill="#FA6803" class="GNxipXmE_1"></path>
<path d="M112.062 61.7164H105.709C105.636 61.7164 105.581 61.7531 105.562 61.8265L103.726 68.3074C103.708 68.3809 103.653 68.4176 103.58 68.4176C103.506 68.4176 103.451 68.3809 103.433 68.3074L101.597 61.8265C101.578 61.7531 101.523 61.7164 101.45 61.7164H95.0974C95.0057 61.7164 94.9506 61.7714 94.9506 61.8632V75.8165C94.9506 75.9266 95.0057 75.9817 95.0974 75.9817H100.385C100.495 75.9817 100.55 75.9266 100.55 75.8165V72.0344C100.55 71.9426 100.587 71.8875 100.679 71.8875C100.771 71.8692 100.826 71.9242 100.844 71.9977L101.854 75.8715C101.872 75.945 101.927 76.0001 102.001 76.0001H105.158C105.232 76.0001 105.287 75.9633 105.305 75.8715L106.315 71.9793C106.333 71.8875 106.407 71.8508 106.48 71.8692C106.572 71.8875 106.609 71.9242 106.609 72.016V75.8348C106.609 75.945 106.664 76.0001 106.756 76.0001H112.043C112.153 76.0001 112.208 75.945 112.208 75.8348V61.8816C112.227 61.7714 112.172 61.7164 112.062 61.7164Z" fill="#FA6803" class="GNxipXmE_2"></path>
<path d="M154.454 61.7164H149.203C149.148 61.7164 149.111 61.7347 149.074 61.7898L147.092 65.168C147.073 65.223 147.018 65.2414 146.963 65.2414C146.908 65.2414 146.853 65.223 146.816 65.168L144.87 61.7898C144.833 61.7347 144.797 61.7164 144.723 61.7164H139.491C139.436 61.7164 139.381 61.7347 139.362 61.7898C139.344 61.8449 139.325 61.9 139.362 61.9367L144.154 70.1434C144.172 70.1617 144.172 70.1985 144.172 70.2168V75.8165C144.172 75.8532 144.191 75.8899 144.209 75.9266C144.246 75.9633 144.283 75.9633 144.319 75.9633H149.625C149.662 75.9633 149.699 75.945 149.735 75.9266C149.772 75.8899 149.772 75.8532 149.772 75.8165V70.2352C149.772 70.2168 149.772 70.1801 149.79 70.1617L154.601 61.955C154.619 61.9 154.619 61.8632 154.601 61.8082C154.582 61.7531 154.509 61.7164 154.454 61.7164Z" fill="#FA6803" class="GNxipXmE_3"></path>
<path d="M240.927 61.7164H235.621C235.584 61.7164 235.548 61.7347 235.511 61.7531C235.474 61.7898 235.474 61.8265 235.474 61.8632V65.5535C235.474 65.6086 235.456 65.6453 235.419 65.6637C235.382 65.682 235.346 65.7004 235.309 65.7004C235.272 65.7004 235.235 65.6637 235.217 65.6269L233.491 61.8082C233.473 61.7531 233.418 61.7164 233.344 61.7164H227.561C227.469 61.7164 227.414 61.7714 227.414 61.8632V75.8348C227.414 75.9266 227.469 75.9817 227.561 75.9817H232.885C232.977 75.9817 233.032 75.9266 233.032 75.8348V71.961C233.032 71.9059 233.051 71.8692 233.087 71.8508C233.124 71.8324 233.161 71.8141 233.216 71.8141C233.253 71.8141 233.289 71.8508 233.308 71.8875L235.235 75.8715C235.254 75.9266 235.291 75.945 235.346 75.945H240.964C241.055 75.945 241.11 75.8899 241.11 75.7981V61.8265C241.055 61.7714 241.019 61.7164 240.927 61.7164Z" fill="#FA6803" class="GNxipXmE_4"></path>
<path d="M285.981 61.7164H273.423C273.331 61.7164 273.276 61.7714 273.276 61.8816V75.8348C273.276 75.945 273.331 76.0001 273.423 76.0001H278.711C278.803 76.0001 278.858 75.945 278.858 75.8348V71.2082C278.858 71.1164 278.913 71.0614 279.023 71.0614H285.706C285.797 71.0614 285.853 71.0063 285.853 70.8961V67.3344C285.853 67.2242 285.797 67.1691 285.706 67.1691H279.023C278.913 67.1691 278.858 67.1141 278.858 67.0039V66.3062C278.858 66.2144 278.913 66.1594 279.023 66.1594H285.981C286.073 66.1594 286.128 66.1043 286.128 65.9941V61.8816C286.128 61.7714 286.073 61.7164 285.981 61.7164Z" fill="#FA6803" class="GNxipXmE_5"></path>
<path d="M330.54 61.7164H317.321C317.284 61.7164 317.247 61.7347 317.211 61.7714C317.174 61.8082 317.174 61.8449 317.174 61.8816V66.3797C317.174 66.4164 317.192 66.4531 317.211 66.4898C317.247 66.5266 317.284 66.5266 317.321 66.5266H320.993C321.029 66.5266 321.066 66.5449 321.103 66.5633C321.139 66.6 321.139 66.6367 321.139 66.6734V75.8348C321.139 75.8715 321.158 75.9083 321.195 75.945C321.231 75.9817 321.268 75.9817 321.305 75.9817H326.574C326.611 75.9817 326.647 75.9633 326.684 75.945C326.721 75.9083 326.721 75.8715 326.721 75.8348V66.6734C326.721 66.6367 326.739 66.6 326.776 66.5633C326.813 66.5266 326.849 66.5266 326.886 66.5266H330.54C330.576 66.5266 330.613 66.5082 330.65 66.4898C330.686 66.4531 330.686 66.4164 330.686 66.3797V61.8816C330.686 61.8449 330.668 61.8082 330.65 61.7714C330.613 61.7347 330.595 61.7164 330.54 61.7164Z" fill="#FA6803" class="GNxipXmE_6"></path>
<path d="M192.146 71.0063L190.659 72.3832C190.548 72.4934 190.548 72.6953 190.677 72.7871L193.614 74.9903L192.531 71.1348C192.476 70.9512 192.274 70.8777 192.146 71.0063Z" fill="#FA6803" class="GNxipXmE_7"></path>
<path d="M190.438 65.4984C190.64 65.4984 190.769 65.2964 190.714 65.0945L189.502 61.3675L188.309 65.0394C188.254 65.2413 188.382 65.4433 188.566 65.4433L190.438 65.4984Z" fill="#FA6803" class="GNxipXmE_8"></path>
<path d="M186.84 69.8312L185.389 74.9719L196.166 66.5816H182.837L186.84 69.8312Z" fill="#FA6803" class="GNxipXmE_9"></path>
<path d="M332.871 39.5014C332.32 36.5822 330.852 34.1955 328.465 32.3045C326.078 30.4318 323.361 29.4955 320.313 29.4955H312.364C312.309 29.4955 312.235 29.4955 312.18 29.4771C311.335 29.4588 310.656 28.7611 310.656 27.8982C310.656 27.0353 311.354 26.3193 312.235 26.3193C312.272 26.3193 312.309 26.3193 312.345 26.3193H331.274C331.494 26.3193 331.659 26.154 331.659 25.9337V14.4223C331.659 14.3122 331.623 14.2204 331.531 14.1286C331.457 14.0368 331.347 14.0001 331.237 14.0001H307.609C304.414 14.0001 301.568 15.0098 299.071 17.011C296.574 19.0122 295.051 21.5642 294.518 24.6669C294.188 26.5763 294.28 29.4771 294.794 31.2947C295.308 33.1123 296.134 34.6728 297.254 35.9764C298.374 37.2799 299.769 38.3447 301.421 39.1342C303.074 39.9237 304.836 40.3276 306.691 40.3276H315.044C315.338 40.3276 315.595 40.4377 315.797 40.6397C315.999 40.8416 316.109 41.0987 316.109 41.3924C316.109 41.6862 315.999 41.9432 315.797 42.1452C315.595 42.3471 315.338 42.4389 315.044 42.4389H310.987V42.4206H287.725C289.304 40.9518 290.534 39.226 291.415 37.2248C292.297 35.2236 292.737 33.1123 292.737 30.8541C292.737 28.706 292.315 25.6216 291.489 23.6755C290.663 21.7294 289.543 20.0403 288.129 18.6267C286.715 17.213 285.026 16.093 283.08 15.2669C281.134 14.4407 279.096 14.0184 276.948 14.0184H254.293C254.036 14.0184 253.907 14.1653 253.907 14.4407V41.7963C253.907 42.1452 253.632 42.4206 253.283 42.4206L230.682 42.494C230.572 42.494 230.48 42.4573 230.388 42.3655C230.315 42.292 230.26 42.1819 230.26 42.0717V40.7682C230.26 40.658 230.297 40.5662 230.388 40.4744C230.48 40.401 230.572 40.3459 230.682 40.3459H249.354C249.464 40.3459 249.556 40.3092 249.648 40.2174C249.739 40.1256 249.776 40.0338 249.776 39.9237V29.9545C249.776 29.8443 249.739 29.7525 249.648 29.6607C249.574 29.5689 249.464 29.5322 249.354 29.5322L215.426 29.5506C215.04 29.5506 214.728 29.8627 214.728 30.2482V54.3909C214.728 54.5011 214.765 54.5929 214.856 54.6847C214.93 54.7765 215.04 54.8132 215.15 54.8132L269.09 54.7948C269.2 54.7948 269.292 54.7581 269.384 54.6663C269.457 54.5929 269.513 54.4827 269.513 54.3726V47.0655C269.513 46.8452 269.678 46.68 269.898 46.68H272.579C272.725 46.68 272.854 46.7534 272.946 46.9003L277.426 54.5745C277.517 54.7214 277.646 54.7948 277.811 54.7948H320.68C322.553 54.7948 324.316 54.3542 325.986 53.4913C327.657 52.6284 329.052 51.4901 330.172 50.0765C331.292 48.6811 332.118 47.0471 332.614 45.1745C333.147 43.2835 333.22 41.4108 332.871 39.5014ZM274.653 34.4709C274.323 34.5627 273.956 34.6178 273.588 34.6178H269.953C269.678 34.6178 269.531 34.4709 269.531 34.1771V26.7599C269.531 26.6498 269.568 26.558 269.659 26.4662C269.733 26.3744 269.843 26.3376 269.953 26.3376H273.772C274.396 26.3376 274.947 26.4662 275.443 26.7415C275.443 26.7415 275.443 26.7415 275.461 26.7415C276.838 27.4025 277.793 28.8162 277.793 30.4502C277.793 32.4146 276.452 34.0303 274.653 34.4709Z" fill="#FA6803" class="GNxipXmE_10"></path>
<path d="M250.584 14.7344C250.584 14.3305 250.253 14.0184 249.868 14.0184H147.826C145.678 14.0184 143.64 14.2387 141.712 14.6793C139.784 15.1199 137.985 15.7809 136.296 16.6621C132.9 18.4246 130.274 20.9032 128.383 24.061C127.961 24.7587 127.594 25.493 127.263 26.2458C126.933 25.493 126.566 24.7587 126.143 24.0426C124.252 20.8664 121.627 18.3879 118.23 16.6438C114.834 14.8813 110.997 14 106.664 14C102.349 14 98.4939 14.8813 95.0974 16.6438C91.7009 18.4063 89.0755 20.8848 87.1845 24.0426C86.6153 24.9973 86.138 26.0071 85.7341 27.0536C85.5321 25.9153 85.2017 24.777 84.7794 23.7856C83.9532 21.8395 82.8333 20.1504 81.4196 18.7551C80.0059 17.3414 78.3169 16.2215 76.3708 15.3953C74.4246 14.5691 72.3867 14.1469 70.2387 14.1469H8.42227C8.31211 14.1469 8.22031 14.202 8.12852 14.2938C8.03672 14.3672 8 14.459 8 14.5691V27.1087C8 27.2188 8.03672 27.3106 8.12852 27.4024C8.20195 27.4759 8.31211 27.5309 8.42227 27.5309H18.6485C18.7587 27.5309 18.8505 27.5677 18.9423 27.6595C19.0341 27.7329 19.0708 27.8431 19.0708 27.9532V54.3542C19.0708 54.4643 19.1075 54.5561 19.2176 54.6479C19.3094 54.7397 19.4196 54.7764 19.5298 54.7764H34.199C34.3092 54.7764 34.4009 54.7397 34.4927 54.6479C34.5662 54.5745 34.6213 54.4643 34.6213 54.3542L34.6029 28.4856C34.6029 28.1368 34.8783 27.8614 35.2271 27.8614C35.2271 27.8614 66.475 27.8063 66.6953 27.8063C68.568 27.8063 70.0918 29.3302 70.0918 31.2028C70.0918 32.1759 69.6879 33.0388 69.027 33.663C68.9352 33.7548 68.825 33.8466 68.7148 33.92C68.6965 33.9384 68.6781 33.9384 68.6598 33.9568C68.0723 34.3423 67.2461 34.5259 66.3281 34.581C66.0894 34.5993 47.8768 34.581 47.8768 34.581C47.528 34.581 47.2526 34.8564 47.2526 35.2052V54.3358C47.2526 54.6296 47.3995 54.7764 47.6749 54.7764H62.4359C62.546 54.7764 62.6378 54.7397 62.7296 54.6479C62.8031 54.5745 62.8582 54.4643 62.8582 54.3542V47.0471C62.8582 46.8268 63.0234 46.6615 63.2437 46.6615H65.9242C66.0711 46.6615 66.1996 46.735 66.2914 46.8819L70.7711 54.5561C70.8629 54.703 70.9914 54.7764 71.1567 54.7764H87.2212C87.3864 54.7764 87.515 54.703 87.5884 54.5745C87.6618 54.446 87.6618 54.2991 87.57 54.1522L80.9606 42.8795C80.8688 42.6959 80.8872 42.5306 81.0341 42.3838C82.5028 41.0252 83.6595 39.4279 84.5224 37.6103C84.8528 40.5845 85.7341 43.3017 87.2029 45.7619C89.0939 48.9381 91.7193 51.3983 95.1158 53.1608C98.5123 54.9233 102.349 55.8046 106.682 55.8046C110.997 55.8046 114.852 54.9233 118.249 53.1608C121.645 51.3983 124.271 48.9198 126.162 45.7619C126.584 45.0643 126.951 44.3299 127.282 43.5771C127.612 44.3299 127.979 45.0643 128.402 45.7803C130.293 48.9565 132.918 51.435 136.314 53.1975C139.693 54.96 143.548 55.8413 147.881 55.8413C152.195 55.8413 156.051 54.96 159.447 53.1975C161.375 52.1877 163.064 50.9577 164.515 49.4889L164.551 49.5256C165.635 48.424 166.571 47.194 167.379 45.8354C167.948 44.8807 168.425 43.8893 168.811 42.8428C169.582 40.9517 170.023 38.9505 170.133 36.674C170.169 36.1232 170.188 35.554 170.188 34.9665C170.188 33.0755 169.986 32.6349 169.582 30.9458C169.582 30.9275 169.582 30.9091 169.564 30.8907C169.564 30.8907 169.564 30.8907 169.564 30.8724C169.398 30.2298 168.811 29.7708 168.15 29.7708H153.389H153.37C152.636 29.7708 152.232 30.6337 152.691 31.2212C153.297 32.0107 153.701 32.9654 153.866 33.9935V34.0118C153.921 34.2689 153.94 34.581 153.94 34.9665C153.94 36.2884 153.591 37.4634 152.875 38.4916C152.856 38.5283 152.82 38.565 152.801 38.6017C152.783 38.6201 152.765 38.6568 152.746 38.6752C152.269 39.2994 151.663 39.8502 150.984 40.2541C150.965 40.2724 150.947 40.2908 150.91 40.2908C150.011 40.8416 149.001 41.117 147.881 41.117C146.761 41.117 145.715 40.8599 144.815 40.3092C144.797 40.2908 144.778 40.2908 144.76 40.2724C144.723 40.2541 144.705 40.2357 144.668 40.2174C142.869 39.1525 141.565 37.188 141.639 34.9298C141.933 27.788 150.782 27.6962 155.647 27.7329C155.684 27.7329 155.702 27.7329 155.739 27.7329C155.849 27.7329 155.959 27.7329 156.069 27.7329C156.785 27.7329 157.483 27.7513 158.199 27.7513C162.385 27.7513 166.553 27.7513 170.739 27.7696C175.126 27.7696 179.496 27.7696 183.884 27.788C186.601 27.788 189.318 27.788 192.054 27.788C192.237 27.788 192.439 27.788 192.623 27.788C194.459 27.788 196.02 29.22 196.093 31.0376C196.166 32.9654 194.624 34.5626 192.715 34.5626C192.641 34.5626 174.282 34.5443 174.282 34.5443C173.694 34.5443 173.217 35.0216 173.217 35.6091V54.3542C173.217 54.4643 173.254 54.5561 173.346 54.6479C173.419 54.7397 173.529 54.7764 173.639 54.7764H188.4C188.621 54.7764 188.823 54.5928 188.823 54.3542V47.0654C188.823 46.9553 188.859 46.8635 188.951 46.7717C189.043 46.6799 189.135 46.6432 189.245 46.6432H195.744C198.608 46.6432 201.27 45.9639 203.767 44.5869C206.246 43.2283 208.247 41.3556 209.734 38.9689C211.221 36.5822 212.011 33.9751 212.066 31.1294C212.084 29.8259 211.974 28.5774 211.699 27.3474L250.272 27.3841C250.327 27.3841 250.382 27.3657 250.437 27.3474H250.602V27.2005C250.657 27.127 250.676 27.0536 250.676 26.9802L250.584 14.7344ZM110.942 39.2994C109.767 40.5111 108.335 41.117 106.682 41.117C105.03 41.117 103.598 40.5111 102.423 39.2994C101.248 38.0877 100.642 36.6189 100.642 34.9115C100.642 33.1122 101.211 31.6435 102.349 30.4685C103.488 29.2935 104.938 28.706 106.682 28.706C108.426 28.706 109.877 29.2935 111.015 30.4685C112.153 31.6435 112.723 33.1122 112.723 34.9115C112.723 36.6189 112.135 38.0877 110.942 39.2994Z" fill="#FA6803" class="GNxipXmE_11"></path>
<path d="M9.81084 77.0847C9.83539 77.1584 9.87674 77.2253 9.93163 77.2802C9.97951 77.328 10.0473 77.3838 10.1395 77.4248C10.2339 77.4668 10.3278 77.4817 10.4137 77.4817H15.7012C15.8312 77.4817 15.9745 77.4456 16.1008 77.3446C16.2092 77.2579 16.2668 77.1522 16.2953 77.0951C16.3091 77.0675 16.3204 77.0386 16.3289 77.0089L16.4823 76.4719H20.6059L20.7433 76.9964C20.7779 77.1316 20.856 77.2639 20.9861 77.3585C21.1137 77.4513 21.2549 77.4817 21.3743 77.4817H26.6435C26.7283 77.4817 26.8416 77.4671 26.9574 77.4027C27.07 77.3402 27.1422 77.2544 27.188 77.1856C27.2362 77.1134 27.2646 77.0301 27.2707 76.9439L27.2711 76.9417C27.2723 76.9337 27.2742 76.9211 27.2758 76.9061C27.2833 76.8385 27.2848 76.7411 27.2485 76.6282L22.9195 62.6874C22.8832 62.5572 22.8061 62.4309 22.6805 62.3395C22.5529 62.2467 22.4117 62.2164 22.2923 62.2164H14.7465C14.6271 62.2164 14.4859 62.2467 14.3584 62.3395C14.2328 62.4309 14.1557 62.5572 14.1193 62.6874L9.79035 76.6281C9.75268 76.7451 9.75267 76.8549 9.77194 76.9512C9.78023 76.9927 9.79118 77.0269 9.79764 77.0463L9.80619 77.0712L9.81084 77.0847ZM16.5535 76.2217C16.5528 76.2247 16.5519 76.2277 16.5511 76.2307L16.5535 76.2217ZM27.2689 76.9553L27.2691 76.9543L27.2689 76.9553ZM17.969 71.4145L18.5102 69.5903L19.0515 71.4145H17.969Z" stroke="#526E7C" stroke-linejoin="round" class="GNxipXmE_12"></path>
<path d="M68.3746 77.445C68.4864 77.445 68.7868 77.4082 68.9351 77.1291C68.9621 77.0858 68.9788 77.0462 68.9875 77.0202C69.0212 76.919 69.0169 76.8298 69.0115 76.7819C69.0003 76.6805 68.9637 76.5837 68.9113 76.5002L66.692 72.6981C67.2186 72.1735 67.6321 71.5568 67.9333 70.8658C68.2723 70.0882 68.4523 69.2675 68.4523 68.3711C68.4523 67.5346 68.2926 66.7342 67.9725 65.9739C67.6547 65.2191 67.2152 64.5585 66.6535 63.9968C66.0897 63.4329 65.4479 63.014 64.6822 62.6803L64.6822 62.6802L64.6764 62.6778C63.9162 62.3577 63.1157 62.198 62.2793 62.198H54.146C53.9999 62.198 53.8242 62.2438 53.6846 62.3835C53.5449 62.5231 53.4991 62.6987 53.4991 62.8449V76.7981C53.4991 76.9306 53.5323 77.1101 53.6696 77.2599C53.8129 77.4162 53.9988 77.4633 54.146 77.4633H59.4519C59.6201 77.4633 59.7619 77.3866 59.7832 77.3751C59.7844 77.3745 59.7853 77.374 59.7857 77.3738C59.9552 77.289 60.0453 77.1425 60.0793 77.0065C60.1007 76.9207 60.0991 76.8331 60.0988 76.8184C60.0988 76.8174 60.0988 76.8168 60.0988 76.8164V74.5442H60.5178L62.0316 77.1245C62.0364 77.1328 62.0415 77.1409 62.0468 77.1489C62.0938 77.2193 62.1716 77.3125 62.2989 77.3761C62.4205 77.4369 62.5364 77.445 62.6097 77.445H68.3746ZM61.7063 67.8986C61.8706 68.0889 61.9324 68.2815 61.9104 68.5217C61.8873 68.7218 61.8035 68.881 61.6418 69.0196C61.4808 69.1575 61.2861 69.2297 61.0492 69.2297H60.0988V67.641H61.1226C61.3582 67.641 61.5392 67.7219 61.7063 67.8986ZM59.7426 67.641C59.7391 67.6412 59.7371 67.6412 59.737 67.6412L59.7426 67.641Z" stroke="#526E7C" stroke-linejoin="round" class="GNxipXmE_13"></path>
<path d="M106.08 62.6953L104.58 67.9915L103.079 62.6953C103.044 62.5624 102.966 62.4327 102.838 62.3395C102.71 62.2467 102.569 62.2164 102.45 62.2164H96.0974C95.9513 62.2164 95.7757 62.2622 95.636 62.4018C95.4964 62.5415 95.4506 62.7171 95.4506 62.8632V76.8165C95.4506 76.949 95.4838 77.1285 95.621 77.2783C95.7644 77.4346 95.9502 77.4817 96.0974 77.4817H101.385C101.517 77.4817 101.708 77.4483 101.862 77.2939C102.017 77.1396 102.05 76.9486 102.05 76.8165V75.7712L102.37 76.9961C102.429 77.2271 102.639 77.5001 103.001 77.5001H106.158C106.278 77.5001 106.432 77.4691 106.569 77.3572C106.7 77.2502 106.764 77.1106 106.792 76.9871L107.109 75.7654V76.8348C107.109 76.9673 107.142 77.1469 107.279 77.2966C107.423 77.453 107.609 77.5001 107.756 77.5001H113.043C113.175 77.5001 113.366 77.4667 113.521 77.3123C113.675 77.1579 113.708 76.967 113.708 76.8348V62.9114C113.722 62.7719 113.7 62.5809 113.552 62.4198C113.393 62.2463 113.186 62.2164 113.062 62.2164H106.709C106.59 62.2164 106.449 62.2467 106.321 62.3395C106.193 62.4327 106.115 62.5624 106.08 62.6953Z" stroke="#526E7C" stroke-linejoin="round" class="GNxipXmE_14"></path>
<path d="M149.658 62.5125C149.653 62.5204 149.648 62.5285 149.643 62.5367L147.957 65.4101L146.303 62.5402C146.298 62.5308 146.292 62.5215 146.286 62.5125C146.239 62.442 146.161 62.3489 146.034 62.2852C145.912 62.2245 145.796 62.2164 145.723 62.2164H140.491C140.367 62.2164 140.011 62.2615 139.888 62.6317C139.888 62.6326 139.887 62.6338 139.887 62.6354C139.879 62.6564 139.852 62.737 139.844 62.8249C139.835 62.924 139.846 63.0785 139.949 63.2201L144.672 71.3101V76.8165C144.672 76.9846 144.749 77.1265 144.761 77.1478C144.761 77.149 144.762 77.1498 144.762 77.1502C144.786 77.1983 144.818 77.2422 144.856 77.2802C145.041 77.4652 145.258 77.4637 145.314 77.4634C145.316 77.4633 145.318 77.4633 145.319 77.4633H150.625C150.793 77.4633 150.935 77.3866 150.956 77.3751C150.958 77.3745 150.958 77.374 150.959 77.3738C151.007 77.3498 151.051 77.3182 151.089 77.2802C151.274 77.0952 151.272 76.8776 151.272 76.8222C151.272 76.82 151.272 76.8181 151.272 76.8165V71.3288L156.032 63.2079C156.049 63.1779 156.064 63.1461 156.075 63.1132C156.095 63.0536 156.114 62.9752 156.114 62.8816C156.114 62.788 156.095 62.7096 156.075 62.6501C156.014 62.4682 155.883 62.3624 155.793 62.3097C155.699 62.2551 155.581 62.2164 155.454 62.2164H150.203C150.118 62.2164 150.005 62.231 149.889 62.2953C149.776 62.3579 149.704 62.4436 149.658 62.5125ZM144.672 71.2168V71.2173C144.672 71.215 144.672 71.2138 144.672 71.2137C144.672 71.2137 144.672 71.2147 144.672 71.2168ZM151.272 71.2321C151.272 71.2319 151.272 71.2332 151.272 71.2356V71.2352C151.272 71.2332 151.272 71.2322 151.272 71.2321Z" stroke="#526E7C" stroke-linejoin="round" class="GNxipXmE_15"></path>
<path d="M236.287 62.3059C236.239 62.3299 236.195 62.3615 236.157 62.3995C235.972 62.5845 235.974 62.8022 235.974 62.8575C235.974 62.8597 235.974 62.8616 235.974 62.8632V64.8752L234.954 62.6179C234.845 62.3382 234.575 62.2164 234.344 62.2164H228.561C228.415 62.2164 228.239 62.2622 228.1 62.4018C227.96 62.5415 227.914 62.7171 227.914 62.8632V76.8348C227.914 76.9809 227.96 77.1566 228.1 77.2962C228.239 77.4359 228.415 77.4817 228.561 77.4817H233.885C234.032 77.4817 234.207 77.4359 234.347 77.2963C234.486 77.1566 234.532 76.981 234.532 76.8348V74.4997L235.776 77.0705C235.817 77.1703 235.89 77.2767 236.012 77.3529C236.14 77.4332 236.269 77.445 236.346 77.445H241.964C242.11 77.445 242.285 77.3992 242.425 77.2595C242.565 77.1199 242.61 76.9443 242.61 76.7981V62.8265C242.61 62.6939 242.558 62.5667 242.464 62.473C242.456 62.4648 242.455 62.4637 242.453 62.4619C242.451 62.4596 242.448 62.4562 242.429 62.4365C242.41 62.4173 242.377 62.384 242.332 62.3508C242.227 62.2717 242.091 62.2164 241.927 62.2164H236.621C236.453 62.2164 236.311 62.293 236.29 62.3046C236.288 62.3052 236.288 62.3057 236.287 62.3059Z" stroke="#526E7C" stroke-linejoin="round" class="GNxipXmE_16"></path>
<path d="M286.981 62.2164H274.423C274.276 62.2164 274.09 62.2634 273.947 62.4198C273.809 62.5695 273.776 62.7491 273.776 62.8816V76.8348C273.776 76.9673 273.809 77.1469 273.947 77.2966C274.09 77.453 274.276 77.5001 274.423 77.5001H279.711C279.858 77.5001 280.044 77.453 280.187 77.2966C280.324 77.1469 280.358 76.9673 280.358 76.8348V72.5613H286.706C286.853 72.5613 287.039 72.5143 287.182 72.3579C287.319 72.2082 287.353 72.0286 287.353 71.8961V68.3344C287.353 68.2019 287.319 68.0223 287.182 67.8726C287.039 67.7162 286.853 67.6691 286.706 67.6691H280.358V67.6594H286.981C287.128 67.6594 287.314 67.6123 287.458 67.4559C287.595 67.3062 287.628 67.1266 287.628 66.9941V62.8816C287.628 62.7491 287.595 62.5696 287.458 62.4198C287.314 62.2634 287.128 62.2164 286.981 62.2164Z" stroke="#526E7C" stroke-linejoin="round" class="GNxipXmE_17"></path>
<path d="M317.763 67.7134C317.787 67.7615 317.819 67.8054 317.857 67.8434C318.042 68.0284 318.26 68.0269 318.315 68.0266C318.317 68.0266 318.319 68.0266 318.321 68.0266H321.639V76.8348C321.639 77.0508 321.75 77.2072 321.841 77.2985C322.026 77.4835 322.244 77.4821 322.299 77.4817C322.301 77.4817 322.303 77.4817 322.305 77.4817H327.574C327.742 77.4817 327.884 77.405 327.905 77.3935C327.906 77.3928 327.907 77.3924 327.908 77.3922C327.956 77.3682 328 77.3365 328.038 77.2985C328.223 77.1135 328.221 76.896 328.221 76.8405C328.221 76.8384 328.221 76.8365 328.221 76.8348V68.0266H331.54C331.708 68.0266 331.849 67.9499 331.871 67.9384C331.872 67.9377 331.873 67.9373 331.873 67.9371C331.921 67.913 331.965 67.8814 332.003 67.8434C332.188 67.6584 332.187 67.4408 332.186 67.3854C332.186 67.3832 332.186 67.3813 332.186 67.3797V62.8816C332.186 62.7134 332.11 62.5714 332.098 62.5503C332.098 62.5491 332.097 62.5482 332.097 62.5478C332.073 62.4998 332.041 62.4559 332.003 62.4179C332.003 62.4176 332.002 62.4171 332.002 62.4163C331.991 62.4049 331.93 62.3421 331.85 62.296C331.738 62.2325 331.628 62.2164 331.54 62.2164H318.321C318.105 62.2164 317.948 62.3267 317.857 62.4179C317.672 62.6029 317.673 62.8206 317.674 62.8759C317.674 62.878 317.674 62.88 317.674 62.8816V67.3797C317.674 67.5478 317.75 67.6895 317.762 67.711C317.763 67.7122 317.763 67.713 317.763 67.7134ZM321.639 67.6704C321.639 67.667 321.639 67.665 321.639 67.6648L321.639 67.6704ZM327.877 68.0267C327.877 68.0267 327.879 68.0266 327.883 68.0266L327.877 68.0267Z" stroke="#526E7C" stroke-linejoin="round" class="GNxipXmE_18"></path>
<path d="M191.319 73.0163C191.314 73.0207 191.31 73.0251 191.305 73.0297C191.017 73.318 190.964 73.8867 191.381 74.1898L194.314 76.3903C194.486 76.5189 194.72 76.5239 194.897 76.4028C195.074 76.2817 195.154 76.0613 195.096 75.855L194.013 71.9995L194.013 71.9995L194.01 71.9911C193.939 71.7552 193.764 71.5616 193.529 71.4806C193.286 71.3973 193.005 71.4459 192.801 71.6442L191.319 73.0163Z" stroke="#526E7C" stroke-linejoin="round" class="GNxipXmE_19"></path>
<path d="M191.424 66.9982L191.438 66.9984C192.039 66.9984 192.319 66.4132 192.196 65.9629C192.194 65.9552 192.192 65.9475 192.189 65.9399L190.977 62.2129C190.91 62.0069 190.719 61.8675 190.502 61.8675C190.285 61.8675 190.093 62.007 190.026 62.2129L188.833 65.8848C188.831 65.8925 188.828 65.9001 188.826 65.9078C188.71 66.3323 188.959 66.9373 189.557 66.9433L191.424 66.9982Z" stroke="#526E7C" stroke-linejoin="round" class="GNxipXmE_20"></path>
<path d="M185.908 75.8361C185.85 76.0441 185.931 76.2662 186.11 76.3868C186.29 76.5074 186.526 76.4992 186.697 76.3664L197.474 67.9761C197.642 67.8449 197.709 67.6212 197.639 67.4192C197.57 67.2172 197.38 67.0816 197.166 67.0816H183.837C183.626 67.0816 183.437 67.2149 183.366 67.4144C183.295 67.6139 183.358 67.8363 183.522 67.9698L187.269 71.0121L185.908 75.8361Z" stroke="#526E7C" stroke-linejoin="round" class="GNxipXmE_21"></path>
<path d="M334.363 40.4115L334.363 40.4087C333.789 37.3669 332.253 34.8755 329.775 32.9126L329.774 32.9111C327.298 30.969 324.472 29.9955 321.313 29.9955H313.364C313.349 29.9955 313.339 29.9955 313.329 29.9953C313.324 29.9952 313.319 29.9951 313.316 29.9949C313.314 29.9948 313.313 29.9948 313.311 29.9947C313.272 29.984 313.232 29.9781 313.191 29.9772C312.623 29.9649 312.156 29.4944 312.156 28.8982C312.156 28.3076 312.634 27.8193 313.235 27.8193H313.235H313.236H313.236H313.236H313.236H313.236H313.237H313.237H313.237H313.237H313.237H313.238H313.238H313.238H313.238H313.239H313.239H313.239H313.239H313.239H313.24H313.24H313.24H313.24H313.24H313.241H313.241H313.241H313.241H313.242H313.242H313.242H313.242H313.242H313.243H313.243H313.243H313.243H313.244H313.244H313.244H313.244H313.244H313.245H313.245H313.245H313.245H313.245H313.246H313.246H313.246H313.246H313.247H313.247H313.247H313.247H313.247H313.248H313.248H313.248H313.248H313.248H313.249H313.249H313.249H313.249H313.25H313.25H313.25H313.25H313.25H313.251H313.251H313.251H313.251H313.251H313.252H313.252H313.252H313.252H313.253H313.253H313.253H313.253H313.253H313.254H313.254H313.254H313.254H313.254H313.255H313.255H313.255H313.255H313.256H313.256H313.256H313.256H313.256H313.257H313.257H313.257H313.257H313.257H313.258H313.258H313.258H313.258H313.259H313.259H313.259H313.259H313.259H313.26H313.26H313.26H313.26H313.26H313.261H313.261H313.261H313.261H313.262H313.262H313.262H313.262H313.262H313.263H313.263H313.263H313.263H313.264H313.264H313.264H313.264H313.264H313.265H313.265H313.265H313.265H313.265H313.266H313.266H313.266H313.266H313.267H313.267H313.267H313.267H313.267H313.268H313.268H313.268H313.268H313.268H313.269H313.269H313.269H313.269H313.27H313.27H313.27H313.27H313.27H313.271H313.271H313.271H313.271H313.271H313.272H313.272H313.272H313.272H313.273H313.273H313.273H313.273H313.273H313.274H313.274H313.274H313.274H313.274H313.275H313.275H313.275H313.275H313.276H313.276H313.276H313.276H313.276H313.277H313.277H313.277H313.277H313.277H313.278H313.278H313.278H313.278H313.279H313.279H313.279H313.279H313.279H313.28H313.28H313.28H313.28H313.281H313.281H313.281H313.281H313.281H313.282H313.282H313.282H313.282H313.282H313.283H313.283H313.283H313.283H313.284H313.284H313.284H313.284H313.284H313.285H313.285H313.285H313.285H313.285H313.286H313.286H313.286H313.286H313.287H313.287H313.287H313.287H313.287H313.288H313.288H313.288H313.288H313.288H313.289H313.289H313.289H313.289H313.29H313.29H313.29H313.29H313.29H313.291H313.291H313.291H313.291H313.291H313.292H313.292H313.292H313.292H313.293H313.293H313.293H313.293H313.293H313.294H313.294H313.294H313.294H313.294H313.295H313.295H313.295H313.295H313.296H313.296H313.296H313.296H313.296H313.297H313.297H313.297H313.297H313.298H313.298H313.298H313.298H313.298H313.299H313.299H313.299H313.299H313.299H313.3H313.3H313.3H313.3H313.301H313.301H313.301H313.301H313.301H313.302H313.302H313.302H313.302H313.302H313.303H313.303H313.303H313.303H313.304H313.304H313.304H313.304H313.304H313.305H313.305H313.305H313.305H313.305H313.306H313.306H313.306H313.306H313.307H313.307H313.307H313.307H313.307H313.308H313.308H313.308H313.308H313.308H313.309H313.309H313.309H313.309H313.31H313.31H313.31H313.31H313.31H313.311H313.311H313.311H313.311H313.311H313.312H313.312H313.312H313.312H313.313H313.313H313.313H313.313H313.313H313.314H313.314H313.314H313.314H313.314H313.315H313.315H313.315H313.315H313.316H313.316H313.316H313.316H313.316H313.317H313.317H313.317H313.317H313.318H313.318H313.318H313.318H313.318H313.319H313.319H313.319H313.319H313.319H313.32H313.32H313.32H313.32H313.321H313.321H313.321H313.321H313.321H313.322H313.322H313.322H313.322H313.322H313.323H313.323H313.323H313.323H313.324H313.324H313.324H313.324H313.324H313.325H313.325H313.325H313.325H313.325H313.326H313.326H313.326H313.326H313.327H313.327H313.327H313.327H313.327H313.328H313.328H313.328H313.328H313.328H313.329H313.329H313.329H313.329H313.33H313.33H313.33H313.33H313.33H313.331H313.331H313.331H313.331H313.331H313.332H313.332H313.332H313.332H313.333H313.333H313.333H313.333H313.333H313.334H313.334H313.334H313.334H313.335H313.335H313.335H313.335H313.335H313.336H313.336H313.336H313.336H313.336H313.337H313.337H313.337H313.337H313.338H313.338H313.338H313.338H313.338H313.339H313.339H313.339H313.339H313.339H313.34H313.34H313.34H313.34H313.341H313.341H313.341H313.341H313.341H313.342H313.342H313.342H313.342H313.342H313.343H313.343H313.343H313.343H313.344H313.344H313.344H313.344H313.344H313.345H313.345H313.345H313.345H332.274C332.77 27.8193 333.159 27.4302 333.159 26.9337V15.4223C333.159 15.1795 333.07 14.9691 332.903 14.7935C332.71 14.5689 332.445 14.5001 332.237 14.5001H308.609C305.299 14.5001 302.343 15.5493 299.759 17.6209C297.169 19.6964 295.579 22.3559 295.025 25.582C294.684 27.5557 294.776 30.5326 295.312 32.4308C295.845 34.3128 296.704 35.9395 297.875 37.3022C299.042 38.6605 300.493 39.7672 302.206 40.5854C303.925 41.4068 305.761 41.8276 307.691 41.8276H316.044C316.203 41.8276 316.333 41.8833 316.443 41.9932C316.553 42.1031 316.609 42.2337 316.609 42.3924C316.609 42.5511 316.553 42.6817 316.443 42.7916C316.349 42.886 316.226 42.9389 316.044 42.9389H312.121C312.079 42.927 312.033 42.9206 311.987 42.9206H289.931C291.151 41.6043 292.132 40.1089 292.873 38.4263C293.783 36.3601 294.237 34.1799 294.237 31.8541C294.237 29.6682 293.811 26.5103 292.949 24.4801C292.1 22.4792 290.945 20.7353 289.483 19.2731C288.02 17.8109 286.277 16.6561 284.276 15.8066C282.268 14.9545 280.164 14.5184 277.948 14.5184H255.293C255.069 14.5184 254.818 14.5851 254.632 14.7911C254.455 14.988 254.407 15.2339 254.407 15.4407V42.7963C254.407 42.8361 254.392 42.8655 254.372 42.8857C254.352 42.9059 254.323 42.9206 254.283 42.9206L254.281 42.9206L231.76 42.9937V41.8459H250.354C250.605 41.8459 250.822 41.7502 251.001 41.571C251.18 41.3917 251.276 41.1751 251.276 40.9237V30.9545C251.276 30.7116 251.187 30.5012 251.019 30.3255C250.826 30.101 250.562 30.0322 250.354 30.0322L250.354 30.0322L216.426 30.0506C216.425 30.0506 216.425 30.0506 216.425 30.0506C215.764 30.0507 215.228 30.5866 215.228 31.2482V55.3909C215.228 55.6338 215.317 55.8442 215.485 56.0199C215.678 56.2444 215.942 56.3132 216.15 56.3132H216.15L270.09 56.2948C270.09 56.2948 270.09 56.2948 270.09 56.2948C270.342 56.2948 270.558 56.1991 270.738 56.0199C270.887 55.8707 271.013 55.6388 271.013 55.3726V48.18H273.53L277.994 55.8266L278.002 55.8395C278.179 56.1241 278.464 56.2948 278.811 56.2948H321.68C323.635 56.2948 325.476 55.834 327.216 54.9356C328.946 54.0419 330.397 52.8594 331.563 51.3885C332.727 49.9377 333.584 48.2417 334.097 46.3061C334.649 44.341 334.725 42.3925 334.363 40.4115ZM275.534 34.9852L275.519 34.9891C275.229 35.0697 274.907 35.1178 274.588 35.1178H271.031V27.8376H274.772C275.324 27.8376 275.789 27.9504 276.2 28.1786L276.443 27.7415V27.7798L276.245 28.1923C277.455 28.7731 278.293 30.0153 278.293 31.4502C278.293 33.179 277.115 34.5981 275.534 34.9852Z" stroke="#526E7C" stroke-linejoin="round" class="GNxipXmE_22"></path>
<mask id="path-24-outside-1_120_43" maskUnits="userSpaceOnUse" x="8" y="14" width="245" height="44" fill="black">
<path fill="white" width="245" height="44" d="M8 14 L253 14 L253 58 L8 58 Z" class="GNxipXmE_23"></path>
<path d="M251.584 15.7344C251.584 15.3305 251.253 15.0184 250.868 15.0184H148.826C146.678 15.0184 144.64 15.2387 142.712 15.6793C140.784 16.1199 138.985 16.7809 137.296 17.6621C133.9 19.4246 131.274 21.9032 129.383 25.061C128.961 25.7587 128.594 26.493 128.263 27.2458C127.933 26.493 127.566 25.7587 127.143 25.0426C125.252 21.8664 122.627 19.3879 119.23 17.6438C115.834 15.8813 111.997 15 107.664 15C103.349 15 99.4939 15.8813 96.0974 17.6438C92.7009 19.4063 90.0755 21.8848 88.1845 25.0426C87.6153 25.9973 87.138 27.0071 86.7341 28.0536C86.5321 26.9153 86.2017 25.777 85.7794 24.7856C84.9532 22.8395 83.8333 21.1504 82.4196 19.7551C81.0059 18.3414 79.3169 17.2215 77.3708 16.3953C75.4246 15.5691 73.3867 15.1469 71.2387 15.1469H9.42227C9.31211 15.1469 9.22031 15.202 9.12852 15.2938C9.03672 15.3672 9 15.459 9 15.5691V28.1087C9 28.2188 9.03672 28.3106 9.12852 28.4024C9.20195 28.4759 9.31211 28.5309 9.42227 28.5309H19.6485C19.7587 28.5309 19.8505 28.5677 19.9423 28.6595C20.0341 28.7329 20.0708 28.8431 20.0708 28.9532V55.3542C20.0708 55.4643 20.1075 55.5561 20.2176 55.6479C20.3094 55.7397 20.4196 55.7764 20.5298 55.7764H35.199C35.3092 55.7764 35.4009 55.7397 35.4927 55.6479C35.5662 55.5745 35.6213 55.4643 35.6213 55.3542L35.6029 29.4856C35.6029 29.1368 35.8783 28.8614 36.2271 28.8614C36.2271 28.8614 67.475 28.8063 67.6953 28.8063C69.568 28.8063 71.0918 30.3302 71.0918 32.2028C71.0918 33.1759 70.6879 34.0388 70.027 34.663C69.9352 34.7548 69.825 34.8466 69.7148 34.92C69.6965 34.9384 69.6781 34.9384 69.6598 34.9568C69.0723 35.3423 68.2461 35.5259 67.3281 35.581C67.0894 35.5993 48.8768 35.581 48.8768 35.581C48.528 35.581 48.2526 35.8564 48.2526 36.2052V55.3358C48.2526 55.6296 48.3995 55.7764 48.6749 55.7764H63.4359C63.546 55.7764 63.6378 55.7397 63.7296 55.6479C63.8031 55.5745 63.8582 55.4643 63.8582 55.3542V48.0471C63.8582 47.8268 64.0234 47.6615 64.2437 47.6615H66.9242C67.0711 47.6615 67.1996 47.735 67.2914 47.8819L71.7711 55.5561C71.8629 55.703 71.9914 55.7764 72.1567 55.7764H88.2212C88.3864 55.7764 88.515 55.703 88.5884 55.5745C88.6618 55.446 88.6618 55.2991 88.57 55.1522L81.9606 43.8795C81.8688 43.6959 81.8872 43.5306 82.0341 43.3838C83.5028 42.0252 84.6595 40.4279 85.5224 38.6103C85.8528 41.5845 86.7341 44.3017 88.2029 46.7619C90.0939 49.9381 92.7193 52.3983 96.1158 54.1608C99.5123 55.9233 103.349 56.8046 107.682 56.8046C111.997 56.8046 115.852 55.9233 119.249 54.1608C122.645 52.3983 125.271 49.9198 127.162 46.7619C127.584 46.0643 127.951 45.3299 128.282 44.5771C128.612 45.3299 128.979 46.0643 129.402 46.7803C131.293 49.9565 133.918 52.435 137.314 54.1975C140.693 55.96 144.548 56.8413 148.881 56.8413C153.195 56.8413 157.051 55.96 160.447 54.1975C162.375 53.1877 164.064 51.9577 165.515 50.4889L165.551 50.5256C166.635 49.424 167.571 48.194 168.379 46.8354C168.948 45.8807 169.425 44.8893 169.811 43.8428C170.582 41.9517 171.023 39.9505 171.133 37.674C171.169 37.1232 171.188 36.554 171.188 35.9665C171.188 34.0755 170.986 33.6349 170.582 31.9458C170.582 31.9275 170.582 31.9091 170.564 31.8907C170.564 31.8907 170.564 31.8907 170.564 31.8724C170.398 31.2298 169.811 30.7708 169.15 30.7708H154.389H154.37C153.636 30.7708 153.232 31.6337 153.691 32.2212C154.297 33.0107 154.701 33.9654 154.866 34.9935V35.0118C154.921 35.2689 154.94 35.581 154.94 35.9665C154.94 37.2884 154.591 38.4634 153.875 39.4916C153.856 39.5283 153.82 39.565 153.801 39.6017C153.783 39.6201 153.765 39.6568 153.746 39.6752C153.269 40.2994 152.663 40.8502 151.984 41.2541C151.965 41.2724 151.947 41.2908 151.91 41.2908C151.011 41.8416 150.001 42.117 148.881 42.117C147.761 42.117 146.715 41.8599 145.815 41.3092C145.797 41.2908 145.778 41.2908 145.76 41.2724C145.723 41.2541 145.705 41.2357 145.668 41.2174C143.869 40.1525 142.565 38.188 142.639 35.9298C142.933 28.788 151.782 28.6962 156.647 28.7329C156.684 28.7329 156.702 28.7329 156.739 28.7329C156.849 28.7329 156.959 28.7329 157.069 28.7329C157.785 28.7329 158.483 28.7513 159.199 28.7513C163.385 28.7513 167.553 28.7513 171.739 28.7696C176.126 28.7696 180.496 28.7696 184.884 28.788C187.601 28.788 190.318 28.788 193.054 28.788C193.237 28.788 193.439 28.788 193.623 28.788C195.459 28.788 197.02 30.22 197.093 32.0376C197.166 33.9654 195.624 35.5626 193.715 35.5626C193.641 35.5626 175.282 35.5443 175.282 35.5443C174.694 35.5443 174.217 36.0216 174.217 36.6091V55.3542C174.217 55.4643 174.254 55.5561 174.346 55.6479C174.419 55.7397 174.529 55.7764 174.639 55.7764H189.4C189.621 55.7764 189.823 55.5928 189.823 55.3542V48.0654C189.823 47.9553 189.859 47.8635 189.951 47.7717C190.043 47.6799 190.135 47.6432 190.245 47.6432H196.744C199.608 47.6432 202.27 46.9639 204.767 45.5869C207.246 44.2283 209.247 42.3556 210.734 39.9689C212.221 37.5822 213.011 34.9751 213.066 32.1294C213.084 30.8259 212.974 29.5774 212.699 28.3474L251.272 28.3841C251.327 28.3841 251.382 28.3657 251.437 28.3474H251.602V28.2005C251.657 28.127 251.676 28.0536 251.676 27.9802L251.584 15.7344ZM111.942 40.2994C110.767 41.5111 109.335 42.117 107.682 42.117C106.03 42.117 104.598 41.5111 103.423 40.2994C102.248 39.0877 101.642 37.6189 101.642 35.9115C101.642 34.1122 102.211 32.6435 103.349 31.4685C104.488 30.2935 105.938 29.706 107.682 29.706C109.426 29.706 110.877 30.2935 112.015 31.4685C113.153 32.6435 113.723 34.1122 113.723 35.9115C113.723 37.6189 113.135 39.0877 111.942 40.2994Z" class="GNxipXmE_24"></path>
</mask>
<path d="M251.584 15.7344C251.584 15.3305 251.253 15.0184 250.868 15.0184H148.826C146.678 15.0184 144.64 15.2387 142.712 15.6793C140.784 16.1199 138.985 16.7809 137.296 17.6621C133.9 19.4246 131.274 21.9032 129.383 25.061C128.961 25.7587 128.594 26.493 128.263 27.2458C127.933 26.493 127.566 25.7587 127.143 25.0426C125.252 21.8664 122.627 19.3879 119.23 17.6438C115.834 15.8813 111.997 15 107.664 15C103.349 15 99.4939 15.8813 96.0974 17.6438C92.7009 19.4063 90.0755 21.8848 88.1845 25.0426C87.6153 25.9973 87.138 27.0071 86.7341 28.0536C86.5321 26.9153 86.2017 25.777 85.7794 24.7856C84.9532 22.8395 83.8333 21.1504 82.4196 19.7551C81.0059 18.3414 79.3169 17.2215 77.3708 16.3953C75.4246 15.5691 73.3867 15.1469 71.2387 15.1469H9.42227C9.31211 15.1469 9.22031 15.202 9.12852 15.2938C9.03672 15.3672 9 15.459 9 15.5691V28.1087C9 28.2188 9.03672 28.3106 9.12852 28.4024C9.20195 28.4759 9.31211 28.5309 9.42227 28.5309H19.6485C19.7587 28.5309 19.8505 28.5677 19.9423 28.6595C20.0341 28.7329 20.0708 28.8431 20.0708 28.9532V55.3542C20.0708 55.4643 20.1075 55.5561 20.2176 55.6479C20.3094 55.7397 20.4196 55.7764 20.5298 55.7764H35.199C35.3092 55.7764 35.4009 55.7397 35.4927 55.6479C35.5662 55.5745 35.6213 55.4643 35.6213 55.3542L35.6029 29.4856C35.6029 29.1368 35.8783 28.8614 36.2271 28.8614C36.2271 28.8614 67.475 28.8063 67.6953 28.8063C69.568 28.8063 71.0918 30.3302 71.0918 32.2028C71.0918 33.1759 70.6879 34.0388 70.027 34.663C69.9352 34.7548 69.825 34.8466 69.7148 34.92C69.6965 34.9384 69.6781 34.9384 69.6598 34.9568C69.0723 35.3423 68.2461 35.5259 67.3281 35.581C67.0894 35.5993 48.8768 35.581 48.8768 35.581C48.528 35.581 48.2526 35.8564 48.2526 36.2052V55.3358C48.2526 55.6296 48.3995 55.7764 48.6749 55.7764H63.4359C63.546 55.7764 63.6378 55.7397 63.7296 55.6479C63.8031 55.5745 63.8582 55.4643 63.8582 55.3542V48.0471C63.8582 47.8268 64.0234 47.6615 64.2437 47.6615H66.9242C67.0711 47.6615 67.1996 47.735 67.2914 47.8819L71.7711 55.5561C71.8629 55.703 71.9914 55.7764 72.1567 55.7764H88.2212C88.3864 55.7764 88.515 55.703 88.5884 55.5745C88.6618 55.446 88.6618 55.2991 88.57 55.1522L81.9606 43.8795C81.8688 43.6959 81.8872 43.5306 82.0341 43.3838C83.5028 42.0252 84.6595 40.4279 85.5224 38.6103C85.8528 41.5845 86.7341 44.3017 88.2029 46.7619C90.0939 49.9381 92.7193 52.3983 96.1158 54.1608C99.5123 55.9233 103.349 56.8046 107.682 56.8046C111.997 56.8046 115.852 55.9233 119.249 54.1608C122.645 52.3983 125.271 49.9198 127.162 46.7619C127.584 46.0643 127.951 45.3299 128.282 44.5771C128.612 45.3299 128.979 46.0643 129.402 46.7803C131.293 49.9565 133.918 52.435 137.314 54.1975C140.693 55.96 144.548 56.8413 148.881 56.8413C153.195 56.8413 157.051 55.96 160.447 54.1975C162.375 53.1877 164.064 51.9577 165.515 50.4889L165.551 50.5256C166.635 49.424 167.571 48.194 168.379 46.8354C168.948 45.8807 169.425 44.8893 169.811 43.8428C170.582 41.9517 171.023 39.9505 171.133 37.674C171.169 37.1232 171.188 36.554 171.188 35.9665C171.188 34.0755 170.986 33.6349 170.582 31.9458C170.582 31.9275 170.582 31.9091 170.564 31.8907C170.564 31.8907 170.564 31.8907 170.564 31.8724C170.398 31.2298 169.811 30.7708 169.15 30.7708H154.389H154.37C153.636 30.7708 153.232 31.6337 153.691 32.2212C154.297 33.0107 154.701 33.9654 154.866 34.9935V35.0118C154.921 35.2689 154.94 35.581 154.94 35.9665C154.94 37.2884 154.591 38.4634 153.875 39.4916C153.856 39.5283 153.82 39.565 153.801 39.6017C153.783 39.6201 153.765 39.6568 153.746 39.6752C153.269 40.2994 152.663 40.8502 151.984 41.2541C151.965 41.2724 151.947 41.2908 151.91 41.2908C151.011 41.8416 150.001 42.117 148.881 42.117C147.761 42.117 146.715 41.8599 145.815 41.3092C145.797 41.2908 145.778 41.2908 145.76 41.2724C145.723 41.2541 145.705 41.2357 145.668 41.2174C143.869 40.1525 142.565 38.188 142.639 35.9298C142.933 28.788 151.782 28.6962 156.647 28.7329C156.684 28.7329 156.702 28.7329 156.739 28.7329C156.849 28.7329 156.959 28.7329 157.069 28.7329C157.785 28.7329 158.483 28.7513 159.199 28.7513C163.385 28.7513 167.553 28.7513 171.739 28.7696C176.126 28.7696 180.496 28.7696 184.884 28.788C187.601 28.788 190.318 28.788 193.054 28.788C193.237 28.788 193.439 28.788 193.623 28.788C195.459 28.788 197.02 30.22 197.093 32.0376C197.166 33.9654 195.624 35.5626 193.715 35.5626C193.641 35.5626 175.282 35.5443 175.282 35.5443C174.694 35.5443 174.217 36.0216 174.217 36.6091V55.3542C174.217 55.4643 174.254 55.5561 174.346 55.6479C174.419 55.7397 174.529 55.7764 174.639 55.7764H189.4C189.621 55.7764 189.823 55.5928 189.823 55.3542V48.0654C189.823 47.9553 189.859 47.8635 189.951 47.7717C190.043 47.6799 190.135 47.6432 190.245 47.6432H196.744C199.608 47.6432 202.27 46.9639 204.767 45.5869C207.246 44.2283 209.247 42.3556 210.734 39.9689C212.221 37.5822 213.011 34.9751 213.066 32.1294C213.084 30.8259 212.974 29.5774 212.699 28.3474L251.272 28.3841C251.327 28.3841 251.382 28.3657 251.437 28.3474H251.602V28.2005C251.657 28.127 251.676 28.0536 251.676 27.9802L251.584 15.7344ZM111.942 40.2994C110.767 41.5111 109.335 42.117 107.682 42.117C106.03 42.117 104.598 41.5111 103.423 40.2994C102.248 39.0877 101.642 37.6189 101.642 35.9115C101.642 34.1122 102.211 32.6435 103.349 31.4685C104.488 30.2935 105.938 29.706 107.682 29.706C109.426 29.706 110.877 30.2935 112.015 31.4685C113.153 32.6435 113.723 34.1122 113.723 35.9115C113.723 37.6189 113.135 39.0877 111.942 40.2994Z" stroke="#526E7C" stroke-width="2" stroke-linejoin="round" mask="url(#path-24-outside-1_120_43)" class="GNxipXmE_25"></path>
<path d="M4 6.5H338C339.933 6.5 341.5 8.067 341.5 10V83C341.5 84.933 339.933 86.5 338 86.5H4.00001C2.06701 86.5 0.5 84.933 0.5 83V10C0.5 8.067 2.067 6.5 4 6.5Z" stroke="#526E7C" class="GNxipXmE_26"></path>
<path d="M8.5 92H331.5" stroke="#526E7C" stroke-linecap="round" class="GNxipXmE_27"></path>
<path d="M9 1H332" stroke="#526E7C" stroke-linecap="round" class="GNxipXmE_28"></path>
<style data-made-with="vivus-instant">.GNxipXmE_0{stroke-dasharray:66 68;stroke-dashoffset:67;animation:GNxipXmE_draw_0 7200ms ease-in-out 0ms infinite,GNxipXmE_fade 7200ms linear 0ms infinite;}.GNxipXmE_1{stroke-dasharray:70 72;stroke-dashoffset:71;animation:GNxipXmE_draw_1 7200ms ease-in-out 0ms infinite,GNxipXmE_fade 7200ms linear 0ms infinite;}.GNxipXmE_2{stroke-dasharray:88 90;stroke-dashoffset:89;animation:GNxipXmE_draw_2 7200ms ease-in-out 0ms infinite,GNxipXmE_fade 7200ms linear 0ms infinite;}.GNxipXmE_3{stroke-dasharray:56 58;stroke-dashoffset:57;animation:GNxipXmE_draw_3 7200ms ease-in-out 0ms infinite,GNxipXmE_fade 7200ms linear 0ms infinite;}.GNxipXmE_4{stroke-dasharray:69 71;stroke-dashoffset:70;animation:GNxipXmE_draw_4 7200ms ease-in-out 0ms infinite,GNxipXmE_fade 7200ms linear 0ms infinite;}.GNxipXmE_5{stroke-dasharray:68 70;stroke-dashoffset:69;animation:GNxipXmE_draw_5 7200ms ease-in-out 0ms infinite,GNxipXmE_fade 7200ms linear 0ms infinite;}.GNxipXmE_6{stroke-dasharray:56 58;stroke-dashoffset:57;animation:GNxipXmE_draw_6 7200ms ease-in-out 0ms infinite,GNxipXmE_fade 7200ms linear 0ms infinite;}.GNxipXmE_7{stroke-dasharray:11 13;stroke-dashoffset:12;animation:GNxipXmE_draw_7 7200ms ease-in-out 0ms infinite,GNxipXmE_fade 7200ms linear 0ms infinite;}.GNxipXmE_8{stroke-dasharray:11 13;stroke-dashoffset:12;animation:GNxipXmE_draw_8 7200ms ease-in-out 0ms infinite,GNxipXmE_fade 7200ms linear 0ms infinite;}.GNxipXmE_9{stroke-dasharray:38 40;stroke-dashoffset:39;animation:GNxipXmE_draw_9 7200ms ease-in-out 0ms infinite,GNxipXmE_fade 7200ms linear 0ms infinite;}.GNxipXmE_10{stroke-dasharray:541 543;stroke-dashoffset:542;animation:GNxipXmE_draw_10 7200ms ease-in-out 0ms infinite,GNxipXmE_fade 7200ms linear 0ms infinite;}.GNxipXmE_11{stroke-dasharray:929 931;stroke-dashoffset:930;animation:GNxipXmE_draw_11 7200ms ease-in-out 0ms infinite,GNxipXmE_fade 7200ms linear 0ms infinite;}.GNxipXmE_12{stroke-dasharray:64 66;stroke-dashoffset:65;animation:GNxipXmE_draw_12 7200ms ease-in-out 0ms infinite,GNxipXmE_fade 7200ms linear 0ms infinite;}.GNxipXmE_13{stroke-dasharray:69 71;stroke-dashoffset:70;animation:GNxipXmE_draw_13 7200ms ease-in-out 0ms infinite,GNxipXmE_fade 7200ms linear 0ms infinite;}.GNxipXmE_14{stroke-dasharray:80 82;stroke-dashoffset:81;animation:GNxipXmE_draw_14 7200ms ease-in-out 0ms infinite,GNxipXmE_fade 7200ms linear 0ms infinite;}.GNxipXmE_15{stroke-dasharray:59 61;stroke-dashoffset:60;animation:GNxipXmE_draw_15 7200ms ease-in-out 0ms infinite,GNxipXmE_fade 7200ms linear 0ms infinite;}.GNxipXmE_16{stroke-dasharray:68 70;stroke-dashoffset:69;animation:GNxipXmE_draw_16 7200ms ease-in-out 0ms infinite,GNxipXmE_fade 7200ms linear 0ms infinite;}.GNxipXmE_17{stroke-dasharray:71 73;stroke-dashoffset:72;animation:GNxipXmE_draw_17 7200ms ease-in-out 0ms infinite,GNxipXmE_fade 7200ms linear 0ms infinite;}.GNxipXmE_18{stroke-dasharray:58 60;stroke-dashoffset:59;animation:GNxipXmE_draw_18 7200ms ease-in-out 0ms infinite,GNxipXmE_fade 7200ms linear 0ms infinite;}.GNxipXmE_19{stroke-dasharray:14 16;stroke-dashoffset:15;animation:GNxipXmE_draw_19 7200ms ease-in-out 0ms infinite,GNxipXmE_fade 7200ms linear 0ms infinite;}.GNxipXmE_20{stroke-dasharray:14 16;stroke-dashoffset:15;animation:GNxipXmE_draw_20 7200ms ease-in-out 0ms infinite,GNxipXmE_fade 7200ms linear 0ms infinite;}.GNxipXmE_21{stroke-dasharray:41 43;stroke-dashoffset:42;animation:GNxipXmE_draw_21 7200ms ease-in-out 0ms infinite,GNxipXmE_fade 7200ms linear 0ms infinite;}.GNxipXmE_22{stroke-dasharray:541 543;stroke-dashoffset:542;animation:GNxipXmE_draw_22 7200ms ease-in-out 0ms infinite,GNxipXmE_fade 7200ms linear 0ms infinite;}.GNxipXmE_23{stroke-dasharray:578 580;stroke-dashoffset:579;animation:GNxipXmE_draw_23 7200ms ease-in-out 0ms infinite,GNxipXmE_fade 7200ms linear 0ms infinite;}.GNxipXmE_24{stroke-dasharray:929 931;stroke-dashoffset:930;animation:GNxipXmE_draw_24 7200ms ease-in-out 0ms infinite,GNxipXmE_fade 7200ms linear 0ms infinite;}.GNxipXmE_25{stroke-dasharray:929 931;stroke-dashoffset:930;animation:GNxipXmE_draw_25 7200ms ease-in-out 0ms infinite,GNxipXmE_fade 7200ms linear 0ms infinite;}.GNxipXmE_26{stroke-dasharray:836 838;stroke-dashoffset:837;animation:GNxipXmE_draw_26 7200ms ease-in-out 0ms infinite,GNxipXmE_fade 7200ms linear 0ms infinite;}.GNxipXmE_27{stroke-dasharray:323 325;stroke-dashoffset:324;animation:GNxipXmE_draw_27 7200ms ease-in-out 0ms infinite,GNxipXmE_fade 7200ms linear 0ms infinite;}.GNxipXmE_28{stroke-dasharray:323 325;stroke-dashoffset:324;animation:GNxipXmE_draw_28 7200ms ease-in-out 0ms infinite,GNxipXmE_fade 7200ms linear 0ms infinite;}@keyframes GNxipXmE_draw{100%{stroke-dashoffset:0;}}@keyframes GNxipXmE_fade{0%{stroke-opacity:1;}94.44444444444444%{stroke-opacity:1;}100%{stroke-opacity:0;}}@keyframes GNxipXmE_draw_0{11.11111111111111%{stroke-dashoffset: 67}11.508275240669608%{ stroke-dashoffset: 0;}100%{ stroke-dashoffset: 0;}}@keyframes GNxipXmE_draw_1{11.508275240669608%{stroke-dashoffset: 71}11.929150661545028%{ stroke-dashoffset: 0;}100%{ stroke-dashoffset: 0;}}@keyframes GNxipXmE_draw_2{11.929150661545028%{stroke-dashoffset: 89}12.456726893346612%{ stroke-dashoffset: 0;}100%{ stroke-dashoffset: 0;}}@keyframes GNxipXmE_draw_3{12.45672689334661%{stroke-dashoffset: 57}12.794612794612794%{ stroke-dashoffset: 0;}100%{ stroke-dashoffset: 0;}}@keyframes GNxipXmE_draw_4{12.794612794612794%{stroke-dashoffset: 70}13.209560392658984%{ stroke-dashoffset: 0;}100%{ stroke-dashoffset: 0;}}@keyframes GNxipXmE_draw_5{13.209560392658984%{stroke-dashoffset: 69}13.618580167875944%{ stroke-dashoffset: 0;}100%{ stroke-dashoffset: 0;}}@keyframes GNxipXmE_draw_6{13.618580167875944%{stroke-dashoffset: 57}13.956466069142126%{ stroke-dashoffset: 0;}100%{ stroke-dashoffset: 0;}}@keyframes GNxipXmE_draw_7{13.956466069142126%{stroke-dashoffset: 12}14.0275999430929%{ stroke-dashoffset: 0;}100%{ stroke-dashoffset: 0;}}@keyframes GNxipXmE_draw_8{14.0275999430929%{stroke-dashoffset: 12}14.098733817043676%{ stroke-dashoffset: 0;}100%{ stroke-dashoffset: 0;}}@keyframes GNxipXmE_draw_9{14.098733817043676%{stroke-dashoffset: 39}14.329918907383696%{ stroke-dashoffset: 0;}100%{ stroke-dashoffset: 0;}}@keyframes GNxipXmE_draw_10{14.329918907383696%{stroke-dashoffset: 542}17.54279888082705%{ stroke-dashoffset: 0;}100%{ stroke-dashoffset: 0;}}@keyframes GNxipXmE_draw_11{17.54279888082705%{stroke-dashoffset: 930}23.055674112012138%{ stroke-dashoffset: 0;}100%{ stroke-dashoffset: 0;}}@keyframes GNxipXmE_draw_12{23.055674112012138%{stroke-dashoffset: 65}23.440982595912175%{ stroke-dashoffset: 0;}100%{ stroke-dashoffset: 0;}}@keyframes GNxipXmE_draw_13{23.44098259591217%{stroke-dashoffset: 70}23.85593019395836%{ stroke-dashoffset: 0;}100%{ stroke-dashoffset: 0;}}@keyframes GNxipXmE_draw_14{23.85593019395836%{stroke-dashoffset: 81}24.336083843126094%{ stroke-dashoffset: 0;}100%{ stroke-dashoffset: 0;}}@keyframes GNxipXmE_draw_15{24.336083843126097%{stroke-dashoffset: 60}24.691753212879973%{ stroke-dashoffset: 0;}100%{ stroke-dashoffset: 0;}}@keyframes GNxipXmE_draw_16{24.691753212879973%{stroke-dashoffset: 69}25.10077298809693%{ stroke-dashoffset: 0;}100%{ stroke-dashoffset: 0;}}@keyframes GNxipXmE_draw_17{25.10077298809693%{stroke-dashoffset: 72}25.527576231801586%{ stroke-dashoffset: 0;}100%{ stroke-dashoffset: 0;}}@keyframes GNxipXmE_draw_18{25.527576231801586%{stroke-dashoffset: 59}25.877317778726226%{ stroke-dashoffset: 0;}100%{ stroke-dashoffset: 0;}}@keyframes GNxipXmE_draw_19{25.877317778726226%{stroke-dashoffset: 15}25.9662351211647%{ stroke-dashoffset: 0;}100%{ stroke-dashoffset: 0;}}@keyframes GNxipXmE_draw_20{25.9662351211647%{stroke-dashoffset: 15}26.05515246360317%{ stroke-dashoffset: 0;}100%{ stroke-dashoffset: 0;}}@keyframes GNxipXmE_draw_21{26.05515246360317%{stroke-dashoffset: 42}26.30412102243088%{ stroke-dashoffset: 0;}100%{ stroke-dashoffset: 0;}}@keyframes GNxipXmE_draw_22{26.30412102243088%{stroke-dashoffset: 542}29.517000995874238%{ stroke-dashoffset: 0;}100%{ stroke-dashoffset: 0;}}@keyframes GNxipXmE_draw_23{29.517000995874238%{stroke-dashoffset: 579}32.94921041399915%{ stroke-dashoffset: 0;}100%{ stroke-dashoffset: 0;}}@keyframes GNxipXmE_draw_24{32.94921041399915%{stroke-dashoffset: 930}38.46208564518424%{ stroke-dashoffset: 0;}100%{ stroke-dashoffset: 0;}}@keyframes GNxipXmE_draw_25{38.46208564518424%{stroke-dashoffset: 930}43.97496087636933%{ stroke-dashoffset: 0;}100%{ stroke-dashoffset: 0;}}@keyframes GNxipXmE_draw_26{43.97496087636932%{stroke-dashoffset: 837}48.936548584435904%{ stroke-dashoffset: 0;}100%{ stroke-dashoffset: 0;}}@keyframes GNxipXmE_draw_27{48.93654858443591%{stroke-dashoffset: 324}50.85716318110685%{ stroke-dashoffset: 0;}100%{ stroke-dashoffset: 0;}}@keyframes GNxipXmE_draw_28{50.85716318110685%{stroke-dashoffset: 324}52.77777777777778%{ stroke-dashoffset: 0;}100%{ stroke-dashoffset: 0;}}</style></svg>
